<svg width="89" height="85" viewBox="0 0 89 85" fill="none" xmlns="http://www.w3.org/2000/svg">
<g clip-path="url(#clip0_204_514)">
<path d="M76.6014 82.905C74.7386 82.905 73.2288 81.4039 73.2288 79.5485V12.3754C73.2288 10.4814 71.6858 8.94715 69.7839 8.94715H19.3976C17.4944 8.94715 15.9528 10.4828 15.9528 12.3754V79.55C15.9528 81.4053 14.443 82.9064 12.58 82.9064C10.717 82.9064 9.20728 81.4053 9.20728 79.55V10.2443C9.20728 5.8194 12.8114 2.2326 17.2576 2.2326H71.9253C76.3716 2.2326 79.9755 5.8194 79.9755 10.2443V79.5485C79.9743 81.4039 78.463 82.905 76.6014 82.905Z" fill="url(#paint0_linear_204_514)"/>
<path d="M53.2125 36.671C54.0657 36.671 54.9202 36.667 55.7734 36.6739C56.0381 36.6766 56.3053 36.6917 56.5673 36.7291C57.7265 36.8903 58.7334 38.2233 57.6211 39.5259C54.0711 43.6833 50.5723 47.8822 47.0528 52.0644C44.0458 55.639 41.0373 59.2146 38.0288 62.7889C37.9677 62.8608 37.9069 62.9337 37.8433 63.0026C37.515 63.3527 37.1313 63.4108 36.7088 63.1998C36.2793 62.9861 36.2919 62.6333 36.3958 62.2323C37.4804 58.0513 38.5592 53.8676 39.6383 49.6851C39.9916 48.315 40.3545 46.9476 40.6994 45.5761C41.0069 44.3574 40.3169 43.3913 39.0414 43.2948C38.3626 43.2423 37.6771 43.2711 36.994 43.2699C35.8182 43.2672 34.6421 43.2741 33.4648 43.2684C33.1809 43.2672 32.8955 43.2477 32.6158 43.2078C31.3872 43.0328 30.4813 41.6654 31.5506 40.4137C35.0508 36.314 38.5038 32.1731 41.9764 28.05C45.0099 24.4468 48.0445 20.8462 51.0792 17.2442C51.1403 17.1726 51.2054 17.1023 51.2623 17.0264C51.5849 16.595 52.0102 16.5205 52.4713 16.7356C52.9369 16.952 52.8758 17.3545 52.7706 17.7625C51.7692 21.6347 50.7705 25.5068 49.7718 29.3802C49.348 31.0234 48.9213 32.6665 48.4948 34.3097C48.1638 35.582 48.8589 36.5759 50.1985 36.6476C51.2012 36.7015 52.2083 36.6587 53.2139 36.6587C53.2125 36.6614 53.2125 36.667 53.2125 36.671Z" fill="url(#paint1_linear_204_514)"/>
<path d="M37.3085 16.617H26.0573C24.4519 16.617 23.1513 17.9114 23.1513 19.509C23.1513 21.1067 24.4519 22.4011 26.0573 22.4011H37.3085C38.914 22.4011 40.2145 21.1067 40.2145 19.509C40.2145 17.9128 38.9125 16.617 37.3085 16.617Z" fill="url(#paint2_linear_204_514)"/>
<path d="M29.4813 27.4613H26.0573C24.4519 27.4613 23.1513 28.7558 23.1513 30.3534C23.1513 31.951 24.4519 33.2455 26.0573 33.2455H29.4813C31.0866 33.2455 32.3872 31.951 32.3872 30.3534C32.3872 28.7573 31.0866 27.4613 29.4813 27.4613Z" fill="url(#paint3_linear_204_514)"/>
<path d="M61.3263 64.6721C64.3778 64.6721 66.8514 62.2101 66.8514 59.1732C66.8514 56.1363 64.3778 53.6746 61.3263 53.6746C58.2747 53.6746 55.8011 56.1363 55.8011 59.1732C55.8011 62.2101 58.2747 64.6721 61.3263 64.6721Z" fill="url(#paint4_linear_204_514)"/>
<path d="M66.8559 26.1892L62.5924 21.9462L58.3304 26.1892L62.5924 30.4308L66.8559 26.1892Z" fill="url(#paint5_linear_204_514)"/>
</g>
<defs>
<linearGradient id="paint0_linear_204_514" x1="44.59" y1="78.6634" x2="44.59" y2="-2.75252" gradientUnits="userSpaceOnUse">
<stop stop-color="white" stop-opacity="0"/>
<stop offset="1" stop-color="white"/>
</linearGradient>
<linearGradient id="paint1_linear_204_514" x1="37.4923" y1="63.7718" x2="50.6387" y2="19.2499" gradientUnits="userSpaceOnUse">
<stop stop-color="white" stop-opacity="0"/>
<stop offset="1" stop-color="white"/>
</linearGradient>
<linearGradient id="paint2_linear_204_514" x1="28.7487" y1="26.3" x2="39.9152" y2="0.203747" gradientUnits="userSpaceOnUse">
<stop stop-color="white" stop-opacity="0"/>
<stop offset="1" stop-color="white"/>
</linearGradient>
<linearGradient id="paint3_linear_204_514" x1="25.7193" y1="35.098" x2="33.5203" y2="16.8665" gradientUnits="userSpaceOnUse">
<stop stop-color="white" stop-opacity="0"/>
<stop offset="1" stop-color="white"/>
</linearGradient>
<linearGradient id="paint4_linear_204_514" x1="64.7493" y1="53.73" x2="53.0895" y2="72.4525" gradientUnits="userSpaceOnUse">
<stop stop-color="white" stop-opacity="0"/>
<stop offset="1" stop-color="white"/>
</linearGradient>
<linearGradient id="paint5_linear_204_514" x1="66.6409" y1="25.2605" x2="58.5486" y2="27.1322" gradientUnits="userSpaceOnUse">
<stop stop-color="white" stop-opacity="0"/>
<stop offset="1" stop-color="white"/>
</linearGradient>
<clipPath id="clip0_204_514">
<rect width="71" height="81" fill="white" transform="translate(9 2)"/>
</clipPath>
</defs>
</svg>
