<svg width="89" height="85" viewBox="0 0 89 85" fill="none" xmlns="http://www.w3.org/2000/svg">
<g clip-path="url(#clip0_204_450)">
<path d="M21.8833 78.105C21.7888 78.5884 21.8138 78.8051 21.9895 78.8051C22.1089 78.8051 22.2965 78.7052 22.5641 78.5227C25.9314 76.7893 31.2151 73.9912 35.7907 71.5554C31.1509 71.0234 27.0634 70.0924 23.4967 68.866C22.7818 73.0601 22.1364 76.767 21.8833 78.105Z" fill="url(#paint0_linear_204_450)"/>
<path d="M63.0123 76.2931C64.7046 76.9784 66.3036 78.2324 67.9919 78.8011C67.7648 76.9338 67.1496 73.0299 66.457 68.8135C62.9008 70.0504 58.8226 70.9932 54.192 71.5369C57.1449 73.1364 60.0976 74.775 63.0123 76.2931Z" fill="url(#paint1_linear_204_450)"/>
<path d="M65.6504 63.9522C64.673 58.1207 63.7731 52.9299 63.7731 52.9299C63.7731 52.9299 75.8873 40.8965 82.0094 34.9548C82.635 34.394 81.9019 34.4845 81.4675 34.3534L56.5231 30.4535C56.5231 30.4535 52.1668 21.9535 50.3867 18.1153C48.5173 14.5239 46.778 10.8406 45.0124 7.18097C40.9302 14.6447 37.3189 22.8281 33.4504 30.5335C25.2375 32.2274 16.492 33.0389 8.09801 34.4032C8.06917 34.436 8.03899 34.4505 8.0075 34.4505C7.97995 34.4505 7.95242 34.44 7.92225 34.4243C7.82125 34.5371 7.62185 34.4217 7.53397 34.5884C13.6953 40.7549 19.9918 46.7557 26.1308 52.9353C25.8921 54.5859 25.1365 59.162 24.3206 64.0036C30.3337 65.5175 37.3321 66.3909 44.8918 66.3909C52.5328 66.3895 59.5953 65.4966 65.6504 63.9522ZM41.2477 59.833C41.0968 59.9106 40.1051 60.4383 38.5834 61.2512C36.9148 62.1429 34.601 63.3786 32.0822 64.7192C32.8668 60.0577 33.5816 55.7229 33.8229 54.0488L34.3791 50.204L31.6429 47.449C29.1506 44.941 26.6332 42.4618 24.1094 39.9891C27.7481 39.4718 31.4213 38.8941 35.0194 38.1521L38.7054 37.392L40.3949 34.0263C41.8601 31.1073 43.2899 28.12 44.7212 25.1287C44.7894 24.9842 44.859 24.8411 44.9283 24.6966C46.9289 28.7699 49.4711 33.7336 49.61 34.004L51.4164 37.5285L55.3254 38.139L65.9782 39.8055C61.8332 43.9022 58.3648 47.3453 58.3004 47.4096L55.425 50.2657L56.1178 54.2602C56.5913 56.9903 57.2445 60.8086 57.8979 64.6995C54.646 62.94 51.3271 61.1921 48.011 59.6794L44.5926 58.1207L41.2477 59.833Z" fill="url(#paint2_linear_204_450)"/>
<path d="M69.7047 19.5965C72.9461 19.5965 75.5736 16.9662 75.5736 13.7216C75.5736 10.477 72.9461 7.84674 69.7047 7.84674C66.4636 7.84674 63.8359 10.477 63.8359 13.7216C63.8359 16.9662 66.4636 19.5965 69.7047 19.5965Z" fill="url(#paint3_linear_204_450)"/>
<path d="M26.5337 21.5412H13.8188C12.7444 21.5412 11.876 20.6719 11.876 19.5965C11.876 18.5211 12.7444 17.6518 13.8188 17.6518H26.5337C27.608 17.6518 28.4763 18.5211 28.4763 19.5965C28.4763 20.6719 27.6066 21.5412 26.5337 21.5412Z" fill="url(#paint4_linear_204_450)"/>
<path d="M84.5067 65.4966H75.575V74.4375H84.5067V65.4966Z" fill="url(#paint5_linear_204_450)"/>
<path d="M14.8887 69.9665L11.3444 66.4171L7.79868 69.9665L11.3444 73.5158L14.8887 69.9665Z" fill="url(#paint6_linear_204_450)"/>
<path d="M44.8943 66.4171C21.962 66.4171 4 58.5096 4 48.4103C4 45.8615 5.08876 43.4309 7.23218 41.1855L10.0393 43.8748C8.60952 45.3718 7.88413 46.8976 7.88413 48.4103C7.88413 55.0876 23.0835 62.5275 44.8943 62.5275C66.7049 62.5275 81.9042 55.0876 81.9042 48.4103C81.9042 46.8988 81.1803 45.3718 79.749 43.8748L82.5562 41.1855C84.6997 43.4297 85.7884 45.8615 85.7884 48.4103C85.7884 58.5096 67.8265 66.4171 44.8943 66.4171Z" fill="url(#paint7_linear_204_450)"/>
</g>
<defs>
<linearGradient id="paint0_linear_204_450" x1="22.7524" y1="78.17" x2="66.9486" y2="27.2396" gradientUnits="userSpaceOnUse">
<stop stop-color="white" stop-opacity="0"/>
<stop offset="1" stop-color="white"/>
</linearGradient>
<linearGradient id="paint1_linear_204_450" x1="43.158" y1="95.8776" x2="87.3542" y2="44.9472" gradientUnits="userSpaceOnUse">
<stop stop-color="white" stop-opacity="0"/>
<stop offset="1" stop-color="white"/>
</linearGradient>
<linearGradient id="paint2_linear_204_450" x1="16.3639" y1="72.6262" x2="60.5601" y2="21.6959" gradientUnits="userSpaceOnUse">
<stop stop-color="white" stop-opacity="0"/>
<stop offset="1" stop-color="white"/>
</linearGradient>
<linearGradient id="paint3_linear_204_450" x1="72.984" y1="8.90715" x2="67.3962" y2="17.0943" gradientUnits="userSpaceOnUse">
<stop stop-color="white" stop-opacity="0"/>
<stop offset="1" stop-color="white"/>
</linearGradient>
<linearGradient id="paint4_linear_204_450" x1="17.3001" y1="15.0732" x2="23.0601" y2="24.1151" gradientUnits="userSpaceOnUse">
<stop stop-color="white" stop-opacity="0"/>
<stop offset="1" stop-color="white"/>
</linearGradient>
<linearGradient id="paint5_linear_204_450" x1="73.7647" y1="78.8771" x2="84.1993" y2="64.0918" gradientUnits="userSpaceOnUse">
<stop stop-color="white" stop-opacity="0"/>
<stop offset="1" stop-color="white"/>
</linearGradient>
<linearGradient id="paint6_linear_204_450" x1="5.32014" y1="71.0089" x2="15.3234" y2="69.2802" gradientUnits="userSpaceOnUse">
<stop stop-color="white" stop-opacity="0"/>
<stop offset="1" stop-color="white"/>
</linearGradient>
<linearGradient id="paint7_linear_204_450" x1="44.8943" y1="45.017" x2="44.8943" y2="67.2235" gradientUnits="userSpaceOnUse">
<stop stop-color="white" stop-opacity="0"/>
<stop offset="1" stop-color="white"/>
</linearGradient>
<clipPath id="clip0_204_450">
<rect width="82" height="72" fill="white" transform="translate(4 7)"/>
</clipPath>
</defs>
</svg>
