<svg width="89" height="85" viewBox="0 0 89 85" fill="none" xmlns="http://www.w3.org/2000/svg">
<g clip-path="url(#clip0_204_340)">
<path d="M29.9075 58.3727C34.1621 61.069 39.1857 62.6535 44.5887 62.6535C49.9914 62.6535 55.0137 61.069 59.2695 58.3727C54.7068 59.4502 49.7827 60.097 44.5887 60.097C39.3944 60.097 34.4702 59.4502 29.9075 58.3727Z" fill="url(#paint0_linear_204_340)"/>
<path d="M72.1847 34.913C72.1847 19.5931 59.83 7.17236 44.5884 7.17236C29.3469 7.17236 16.9923 19.5917 16.9923 34.913C16.9923 41.8287 19.526 48.1384 23.6892 52.9965C29.1191 54.3316 35.3361 55.1211 41.9921 55.2952C41.8202 55.1128 41.7072 54.8731 41.7072 54.6031V51.8478C41.1877 51.764 40.7145 51.6612 40.2685 51.5393C38.947 51.1801 37.6761 50.6305 36.5007 49.9026C35.3349 49.1787 34.2342 48.2699 33.2279 47.1938C32.8801 46.8266 32.8625 46.2522 33.1843 45.8573L36.1515 42.2439C36.3424 42.0108 36.6274 41.8767 36.9289 41.8767C37.2302 41.8767 37.5125 42.0108 37.7034 42.2439C38.6499 43.39 39.7025 44.2603 40.8304 44.8224C41.9498 45.3804 43.1868 45.6642 44.5095 45.6642C46.315 45.6642 47.6487 45.3283 48.4721 44.6633C49.24 44.0508 49.6107 43.1131 49.6107 41.7971C49.6107 40.9032 49.4239 40.2508 49.0559 39.8397C48.6304 39.3572 48.0727 39.0049 47.343 38.7635C46.5195 38.4826 45.5867 38.2496 44.5694 38.0672C43.4649 37.8615 42.3453 37.6204 41.2079 37.3476C39.9904 37.0555 38.8557 36.5962 37.8383 35.9837C36.7365 35.316 35.8517 34.3509 35.2011 33.1089C34.5453 31.8752 34.2274 30.2934 34.2274 28.2729C34.2274 24.8048 35.2053 22.1592 37.132 20.3799C38.3006 19.3079 39.8347 18.5568 41.703 18.1373V15.2271C41.703 14.6692 42.1531 14.2155 42.7109 14.2155H47.1304C47.6866 14.2155 48.1382 14.6706 48.1382 15.2271V17.9755C48.9017 18.1016 49.6368 18.284 50.335 18.5129C51.8745 19.0146 53.4209 19.7781 54.925 20.787C55.1528 20.9405 55.3081 21.1791 55.3573 21.4519C55.4063 21.7247 55.3408 22.0016 55.18 22.2264L52.5153 25.9083C52.1951 26.3469 51.5813 26.4539 51.1312 26.1454C50.1672 25.4806 49.1977 24.9748 48.25 24.643C47.3376 24.3264 46.4267 24.1688 45.55 24.1688C43.878 24.1688 42.6495 24.4895 41.8925 25.1215C41.1821 25.715 40.8384 26.6238 40.8384 27.9014C40.8384 28.8308 41.0525 29.4956 41.4739 29.9055C41.98 30.4072 42.6685 30.7828 43.5236 31.0323C44.5258 31.3284 45.5948 31.6013 46.7295 31.8588C47.7889 32.0961 48.8513 32.3852 49.9081 32.7211C51.0236 33.0734 52.0682 33.6025 53.0117 34.2949C53.9976 35.0102 54.7887 35.9986 55.3668 37.2281C55.9341 38.4347 56.2217 39.9959 56.2217 41.863C56.2217 45.2678 55.2073 47.8409 53.2026 49.5572C51.9235 50.6564 50.223 51.4037 48.1409 51.7834V54.6031C48.1409 54.8648 48.0276 55.0964 47.864 55.2761C54.2623 55.0648 60.2433 54.2863 65.4879 52.9965C69.651 48.1384 72.1847 41.8287 72.1847 34.913Z" fill="url(#paint1_linear_204_340)"/>
<path d="M75.8421 69.3142C72.7 69.3142 70.1447 66.7467 70.1447 63.587C70.1447 60.4275 72.6988 57.86 75.8421 57.86C78.9852 57.86 81.5393 60.4275 81.5393 63.587C81.5393 66.7467 78.9839 69.3142 75.8421 69.3142ZM75.8421 60.8427C74.3365 60.8427 73.1107 62.0737 73.1107 63.5885C73.1107 65.1032 74.3352 66.3342 75.8421 66.3342C77.3487 66.3342 78.5733 65.1032 78.5733 63.5885C78.5733 62.0737 77.3475 60.8427 75.8421 60.8427Z" fill="url(#paint2_linear_204_340)"/>
<path d="M28.2438 74.0269C27.1434 74.0269 26.2502 73.1277 26.2502 72.023C26.2502 70.9166 27.1447 70.0189 28.2438 70.0189C29.3442 70.0189 30.2375 70.9181 30.2375 72.023C30.2375 73.1292 29.343 74.0269 28.2438 74.0269Z" fill="url(#paint3_linear_204_340)"/>
<path d="M60.9347 74.0269C59.8341 74.0269 58.941 73.1277 58.941 72.0228C58.941 70.9166 59.8356 70.0189 60.9347 70.0189C62.0351 70.0189 62.9282 70.9181 62.9282 72.0228C62.9282 73.1291 62.0336 74.0269 60.9347 74.0269Z" fill="url(#paint4_linear_204_340)"/>
<path d="M49.7293 68.3286H39.446V77.9008H49.7293V68.3286Z" fill="url(#paint5_linear_204_340)"/>
<path d="M16.7128 67.6227L11.6632 58.995L6.76904 68.1807L16.7128 67.6227Z" fill="url(#paint6_linear_204_340)"/>
<path d="M44.5887 56.4013C20.8133 56.4013 2.19265 48.1685 2.19265 37.6546C2.19265 35.0007 3.32176 32.4701 5.5445 30.133L8.45591 32.9321C6.97226 34.4907 6.22223 36.0794 6.22223 37.6531C6.22223 44.6043 21.9806 52.3506 44.5913 52.3506C67.2021 52.3506 82.9604 44.6043 82.9604 37.6531C82.9604 36.0794 82.2091 34.4895 80.7266 32.9321L83.638 30.133C85.8609 32.4701 86.99 35.0007 86.99 37.6546C86.9844 48.1685 68.3638 56.4013 44.5887 56.4013Z" fill="url(#paint7_linear_204_340)"/>
</g>
<defs>
<linearGradient id="paint0_linear_204_340" x1="44.5887" y1="63.9716" x2="44.5887" y2="32.062" gradientUnits="userSpaceOnUse">
<stop stop-color="white" stop-opacity="0"/>
<stop offset="1" stop-color="white"/>
</linearGradient>
<linearGradient id="paint1_linear_204_340" x1="36.5724" y1="51.7278" x2="57.0568" y2="9.16617" gradientUnits="userSpaceOnUse">
<stop stop-color="white" stop-opacity="0"/>
<stop offset="1" stop-color="white"/>
</linearGradient>
<linearGradient id="paint2_linear_204_340" x1="83.2529" y1="70.0847" x2="65.0881" y2="54.327" gradientUnits="userSpaceOnUse">
<stop stop-color="white" stop-opacity="0"/>
<stop offset="1" stop-color="white"/>
</linearGradient>
<linearGradient id="paint3_linear_204_340" x1="30.8377" y1="74.297" x2="24.4802" y2="68.7821" gradientUnits="userSpaceOnUse">
<stop stop-color="white" stop-opacity="0"/>
<stop offset="1" stop-color="white"/>
</linearGradient>
<linearGradient id="paint4_linear_204_340" x1="63.5283" y1="74.297" x2="57.1711" y2="68.7818" gradientUnits="userSpaceOnUse">
<stop stop-color="white" stop-opacity="0"/>
<stop offset="1" stop-color="white"/>
</linearGradient>
<linearGradient id="paint5_linear_204_340" x1="43.083" y1="79.1955" x2="47.801" y2="60.3374" gradientUnits="userSpaceOnUse">
<stop stop-color="white" stop-opacity="0"/>
<stop offset="1" stop-color="white"/>
</linearGradient>
<linearGradient id="paint6_linear_204_340" x1="15.4579" y1="71.8822" x2="1.64797" y2="53.721" gradientUnits="userSpaceOnUse">
<stop stop-color="white" stop-opacity="0"/>
<stop offset="1" stop-color="white"/>
</linearGradient>
<linearGradient id="paint7_linear_204_340" x1="44.5887" y1="34.122" x2="44.5887" y2="57.2406" gradientUnits="userSpaceOnUse">
<stop stop-color="white" stop-opacity="0"/>
<stop offset="1" stop-color="white"/>
</linearGradient>
<clipPath id="clip0_204_340">
<rect width="85" height="71" fill="white" transform="translate(2 7)"/>
</clipPath>
</defs>
</svg>
