<svg width="89" height="85" viewBox="0 0 89 85" fill="none" xmlns="http://www.w3.org/2000/svg">
<g clip-path="url(#clip0_204_376)">
<path d="M38.5413 81.8406C52.047 81.8406 62.9954 80.11 62.9954 77.9751C62.9954 75.8403 52.047 74.1096 38.5413 74.1096C25.0357 74.1096 14.0872 75.8403 14.0872 77.9751C14.0872 80.11 25.0357 81.8406 38.5413 81.8406Z" fill="url(#paint0_linear_204_376)"/>
<path d="M45.0964 65.5275L36.7228 60.9285L66.3233 7.60144C66.8336 6.6822 67.9974 6.34756 68.9214 6.85526L73.9466 9.61562C74.8706 10.1233 75.2072 11.281 74.6966 12.2003L45.0964 65.5275Z" fill="url(#paint1_linear_204_376)"/>
<path d="M35.8412 70.8532L45.0962 65.5275L36.7227 60.9285L35.8412 70.8532Z" fill="url(#paint2_linear_204_376)"/>
<path d="M27.6586 59.2425C30.2752 59.2425 32.3964 57.1326 32.3964 54.5298C32.3964 51.9266 30.2752 49.8168 27.6586 49.8168C25.0421 49.8168 22.9209 51.9266 22.9209 54.5298C22.9209 57.1326 25.0421 59.2425 27.6586 59.2425Z" fill="url(#paint3_linear_204_376)"/>
<path d="M70.8276 40.3794C72.4392 40.3794 73.7455 39.0797 73.7455 37.4765C73.7455 35.8736 72.4392 34.5739 70.8276 34.5739C69.2163 34.5739 67.9097 35.8736 67.9097 37.4765C67.9097 39.0797 69.2163 40.3794 70.8276 40.3794Z" fill="url(#paint4_linear_204_376)"/>
<path d="M49.4979 27.2457C49.4979 27.2457 45.4097 26.6416 44.9611 26.5853C44.5113 26.5289 43.9146 26.4289 43.7896 26.1802C43.6644 25.9315 42.9377 24.4865 42.5395 23.6326C42.1205 22.8339 41.7313 22.0146 41.3356 21.1992C40.4217 22.8595 39.6138 24.6801 38.7476 26.3954C36.9085 26.7723 34.9508 26.9532 33.0717 27.2571C33.0601 27.2711 33.0472 27.2699 33.0317 27.2621C33.0085 27.2878 32.9647 27.2621 32.9454 27.2995C34.3244 28.6713 35.7344 30.0072 37.1096 31.3816C36.991 32.1995 36.8505 33.0392 36.6881 33.8432C36.7126 33.8675 36.6855 33.8727 36.6727 33.8828C36.6727 33.9098 36.6727 33.9355 36.6739 33.9625C36.6868 33.9765 36.6855 33.9893 36.6701 34.001C36.6649 34.0277 36.6611 34.0548 36.6559 34.0816C36.6649 34.0971 36.6611 34.11 36.6482 34.12C36.6314 34.3112 36.5914 34.4958 36.5528 34.6817C36.5644 34.7021 36.5605 34.7202 36.5412 34.7342C36.4213 35.4855 36.3002 36.2342 36.1584 36.9805C36.1223 37.1598 36.1623 37.174 36.3105 37.0728C37.8429 36.2894 39.3521 35.4355 40.8897 34.6765C41.0057 34.5803 41.1512 34.524 41.2854 34.4548C42.6322 35.065 44.0177 35.8779 45.3657 36.5766C45.7446 36.7291 46.103 37.0087 46.4805 37.1344C46.3401 35.9856 46.0733 34.8008 45.9046 33.638C45.8917 33.6277 45.8864 33.6149 45.8942 33.5984C45.8903 33.5714 45.8878 33.5444 45.8839 33.5176C45.871 33.5059 45.8671 33.4931 45.8749 33.4777C45.871 33.4509 45.8685 33.4239 45.8645 33.3983C45.8349 33.3584 45.8542 33.306 45.8427 33.2586C45.7499 32.7791 45.6636 32.2778 45.5927 31.7855L45.5978 31.7777L45.5913 31.7841C45.5694 31.7727 45.5694 31.756 45.581 31.7379C45.5694 31.6701 45.5577 31.6032 45.5462 31.5355C45.5319 31.5252 45.5308 31.511 45.5398 31.497C45.5358 31.47 45.5308 31.4432 45.5269 31.4162C45.5061 31.3983 45.5101 31.3827 45.5347 31.3713L45.5398 31.3763L45.5358 31.3713C46.888 30.0303 48.2528 28.6995 49.6228 27.3775C49.7593 27.2546 49.5943 27.2738 49.4979 27.2457Z" fill="url(#paint5_linear_204_376)"/>
<path d="M35.8412 70.8532L37.8478 69.698C37.0295 69.3955 36.4366 68.9969 36.0422 68.5916L35.8412 70.8532Z" fill="url(#paint6_linear_204_376)"/>
<path d="M38.0372 46.6834C36.006 49.2091 35.908 53.2321 37.6583 59.2425L40.2553 54.563C39.835 51.9154 39.9924 49.9526 40.8326 48.9091C41.5055 48.0717 42.7066 47.6859 44.163 47.5244L46.1928 43.8678C42.914 43.8513 39.9087 44.3564 38.0372 46.6834Z" fill="url(#paint7_linear_204_376)"/>
<path d="M60.6277 37.5459C60.7373 38.465 60.7759 39.4036 60.67 40.3844C60.4214 42.6843 59.2537 43.696 57.0098 44.0626L54.9439 47.7859C59.3658 47.6794 63.6151 46.4447 64.2299 40.7677C64.5365 37.9331 64.0352 35.3611 63.1653 32.9751L60.6277 37.5459Z" fill="url(#paint8_linear_204_376)"/>
<path d="M50.3894 44.064C48.9806 43.9628 47.5654 43.8741 46.193 43.8677L44.163 47.5244C45.9133 47.3307 48.0359 47.4692 50.138 47.6153C51.6485 47.7218 53.3072 47.8244 54.9453 47.7845L57.0112 44.0615C55.3964 44.3269 53.2403 44.2666 50.3894 44.064Z" fill="url(#paint9_linear_204_376)"/>
<path d="M61.2218 5.62955L58.8053 3C48.1404 12.6964 51.9178 20.071 55.7986 26.5635L57.8155 22.9288C54.6695 17.3517 53.4504 12.6964 61.2218 5.62955Z" fill="url(#paint10_linear_204_376)"/>
<path d="M57.0115 65.2415H51.3705V70.8532H57.0115V65.2415Z" fill="url(#paint11_linear_204_376)"/>
<path d="M31.4387 68.0468L29.1665 65.7864L26.893 68.0468L29.1665 70.3082L31.4387 68.0468Z" fill="url(#paint12_linear_204_376)"/>
</g>
<defs>
<linearGradient id="paint0_linear_204_376" x1="38.5413" y1="74.1866" x2="38.5413" y2="86.3457" gradientUnits="userSpaceOnUse">
<stop stop-color="white" stop-opacity="0"/>
<stop offset="1" stop-color="white"/>
</linearGradient>
<linearGradient id="paint1_linear_204_376" x1="68.2479" y1="50.9787" x2="51.556" y2="30.3182" gradientUnits="userSpaceOnUse">
<stop stop-color="white" stop-opacity="0"/>
<stop offset="1" stop-color="white"/>
</linearGradient>
<linearGradient id="paint2_linear_204_376" x1="40.1009" y1="74.359" x2="41.0055" y2="59.0127" gradientUnits="userSpaceOnUse">
<stop stop-color="white" stop-opacity="0"/>
<stop offset="1" stop-color="white"/>
</linearGradient>
<linearGradient id="paint3_linear_204_376" x1="30.5944" y1="49.8628" x2="20.6012" y2="65.9162" gradientUnits="userSpaceOnUse">
<stop stop-color="white" stop-opacity="0"/>
<stop offset="1" stop-color="white"/>
</linearGradient>
<linearGradient id="paint4_linear_204_376" x1="72.6355" y1="34.6032" x2="66.4815" y2="44.4894" gradientUnits="userSpaceOnUse">
<stop stop-color="white" stop-opacity="0"/>
<stop offset="1" stop-color="white"/>
</linearGradient>
<linearGradient id="paint5_linear_204_376" x1="44.8674" y1="24.3387" x2="33.8647" y2="41.3285" gradientUnits="userSpaceOnUse">
<stop stop-color="white" stop-opacity="0"/>
<stop offset="1" stop-color="white"/>
</linearGradient>
<linearGradient id="paint6_linear_204_376" x1="39.2202" y1="72.234" x2="28.9229" y2="63.6556" gradientUnits="userSpaceOnUse">
<stop stop-color="white" stop-opacity="0"/>
<stop offset="1" stop-color="white"/>
</linearGradient>
<linearGradient id="paint7_linear_204_376" x1="39.7613" y1="53.8048" x2="41.5716" y2="46.0709" gradientUnits="userSpaceOnUse">
<stop stop-color="white" stop-opacity="0"/>
<stop offset="1" stop-color="white"/>
</linearGradient>
<linearGradient id="paint8_linear_204_376" x1="62.0859" y1="37.4154" x2="59.9916" y2="43.5605" gradientUnits="userSpaceOnUse">
<stop stop-color="white" stop-opacity="0"/>
<stop offset="1" stop-color="white"/>
</linearGradient>
<linearGradient id="paint9_linear_204_376" x1="53.0382" y1="34.0662" x2="51.8502" y2="39.8092" gradientUnits="userSpaceOnUse">
<stop stop-color="white" stop-opacity="0"/>
<stop offset="1" stop-color="white"/>
</linearGradient>
<linearGradient id="paint10_linear_204_376" x1="57.1318" y1="5.97386" x2="54.5682" y2="24.3925" gradientUnits="userSpaceOnUse">
<stop stop-color="white" stop-opacity="0"/>
<stop offset="0.8075" stop-color="white"/>
<stop offset="1" stop-color="white" stop-opacity="0"/>
</linearGradient>
<linearGradient id="paint11_linear_204_376" x1="56.5983" y1="64.2193" x2="48.4012" y2="77.3872" gradientUnits="userSpaceOnUse">
<stop stop-color="white" stop-opacity="0"/>
<stop offset="1" stop-color="white"/>
</linearGradient>
<linearGradient id="paint12_linear_204_376" x1="31.6868" y1="67.4709" x2="23.0464" y2="69.4702" gradientUnits="userSpaceOnUse">
<stop stop-color="white" stop-opacity="0"/>
<stop offset="1" stop-color="white"/>
</linearGradient>
<clipPath id="clip0_204_376">
<rect width="61" height="79" fill="white" transform="translate(14 3)"/>
</clipPath>
</defs>
</svg>
