<svg width="30" height="30" viewBox="0 0 30 30" fill="none" xmlns="http://www.w3.org/2000/svg">
<g clip-path="url(#clip0_0_442)">
<path d="M21.0628 0H8.93716C4.00919 0 0 4.00919 0 8.93716V21.0628C0 25.9908 4.00919 30 8.93716 30H21.0628C25.9908 30 30 25.9908 30 21.0628V8.93716C29.9999 4.00919 25.9908 0 21.0628 0ZM26.982 21.0628C26.982 24.3319 24.3319 26.982 21.0628 26.982H8.93716C5.66813 26.982 3.018 24.3319 3.018 21.0628V8.93716C3.018 5.66807 5.66813 3.018 8.93716 3.018H21.0628C24.3319 3.018 26.982 5.66807 26.982 8.93716V21.0628Z" fill="url(#paint0_linear_0_442)"/>
<path d="M15 7.24072C10.7216 7.24072 7.24091 10.7214 7.24091 14.9997C7.24091 19.278 10.7216 22.7588 15 22.7588C19.2783 22.7588 22.759 19.2781 22.759 14.9997C22.759 10.7214 19.2783 7.24072 15 7.24072ZM15 19.7409C12.3815 19.7409 10.2589 17.6182 10.2589 14.9998C10.2589 12.3813 12.3816 10.2587 15 10.2587C17.6184 10.2587 19.741 12.3813 19.741 14.9998C19.741 17.6182 17.6184 19.7409 15 19.7409Z" fill="url(#paint1_linear_0_442)"/>
<path d="M22.7741 9.15841C23.8009 9.15841 24.6333 8.326 24.6333 7.29917C24.6333 6.27235 23.8009 5.43994 22.7741 5.43994C21.7473 5.43994 20.9149 6.27235 20.9149 7.29917C20.9149 8.326 21.7473 9.15841 22.7741 9.15841Z" fill="url(#paint2_linear_0_442)"/>
</g>
<defs>
<linearGradient id="paint0_linear_0_442" x1="30" y1="15.0046" x2="0" y2="15.0046" gradientUnits="userSpaceOnUse">
<stop stop-color="#B0772A"/>
<stop offset="0.16" stop-color="#DEB864"/>
<stop offset="0.25" stop-color="#F4D780"/>
<stop offset="0.46" stop-color="#F4D780"/>
<stop offset="0.65" stop-color="#FBF9D8"/>
<stop offset="0.75" stop-color="#F4D780"/>
<stop offset="1" stop-color="#B0772A"/>
</linearGradient>
<linearGradient id="paint1_linear_0_442" x1="22.759" y1="15.0021" x2="7.24091" y2="15.0021" gradientUnits="userSpaceOnUse">
<stop stop-color="#B0772A"/>
<stop offset="0.16" stop-color="#DEB864"/>
<stop offset="0.25" stop-color="#F4D780"/>
<stop offset="0.46" stop-color="#F4D780"/>
<stop offset="0.65" stop-color="#FBF9D8"/>
<stop offset="0.75" stop-color="#F4D780"/>
<stop offset="1" stop-color="#B0772A"/>
</linearGradient>
<linearGradient id="paint2_linear_0_442" x1="24.6333" y1="7.29974" x2="20.9149" y2="7.29974" gradientUnits="userSpaceOnUse">
<stop stop-color="#B0772A"/>
<stop offset="0.16" stop-color="#DEB864"/>
<stop offset="0.25" stop-color="#F4D780"/>
<stop offset="0.46" stop-color="#F4D780"/>
<stop offset="0.65" stop-color="#FBF9D8"/>
<stop offset="0.75" stop-color="#F4D780"/>
<stop offset="1" stop-color="#B0772A"/>
</linearGradient>
<clipPath id="clip0_0_442">
<rect width="30" height="30" fill="white"/>
</clipPath>
</defs>
</svg>
