<svg width="45" height="32" viewBox="0 0 45 32" fill="none" xmlns="http://www.w3.org/2000/svg">
<path d="M44.4 27.6999V4.2999C44.4 2.1419 42.658 0.399902 40.5 0.399902H4.07401C1.91601 0.399902 0.174011 2.1419 0.174011 4.2999V27.6999C0.174011 29.8579 1.91601 31.5999 4.07401 31.5999H40.5C42.658 31.5999 44.4 29.8579 44.4 27.6999ZM40.994 4.0139C41.852 4.8719 41.384 5.7559 40.916 6.1979L30.36 15.8699L40.5 26.4259C40.812 26.7899 41.02 27.3619 40.656 27.7519C40.318 28.1679 39.538 28.1419 39.2 27.8819L27.838 18.1839L22.274 23.2539L16.736 18.1839L5.37401 27.8819C5.03601 28.1419 4.25601 28.1679 3.91801 27.7519C3.55401 27.3619 3.76201 26.7899 4.07401 26.4259L14.214 15.8699L3.65801 6.1979C3.19001 5.7559 2.72201 4.8719 3.58001 4.0139C4.43801 3.1559 5.32201 3.5719 6.05001 4.1959L22.274 17.2999L38.524 4.1959C39.252 3.5719 40.136 3.1559 40.994 4.0139Z" fill="url(#paint0_linear_0_464)"/>
<defs>
<linearGradient id="paint0_linear_0_464" x1="44.4" y1="16.0047" x2="0.174011" y2="16.0047" gradientUnits="userSpaceOnUse">
<stop stop-color="#B0772A"/>
<stop offset="0.16" stop-color="#DEB864"/>
<stop offset="0.25" stop-color="#F4D780"/>
<stop offset="0.46" stop-color="#F4D780"/>
<stop offset="0.65" stop-color="#FBF9D8"/>
<stop offset="0.75" stop-color="#F4D780"/>
<stop offset="1" stop-color="#B0772A"/>
</linearGradient>
</defs>
</svg>
