<svg width="30" height="38" viewBox="0 0 30 38" fill="none" xmlns="http://www.w3.org/2000/svg">
<path d="M15 0.625C11.1723 0.629516 7.5027 2.15206 4.79612 4.85863C2.08954 7.56521 0.567 11.2348 0.562485 15.0625C0.5579 18.1905 1.57965 21.2336 3.47098 23.725C3.47098 23.725 3.86473 24.2434 3.92905 24.3183L15 37.375L26.0762 24.3117C26.1339 24.2421 26.529 23.725 26.529 23.725L26.5303 23.7211C28.4207 21.2307 29.442 18.189 29.4375 15.0625C29.433 11.2348 27.9104 7.56521 25.2038 4.85863C22.4973 2.15206 18.8277 0.629516 15 0.625ZM15 20.3125C13.9616 20.3125 12.9466 20.0046 12.0832 19.4277C11.2199 18.8508 10.547 18.0309 10.1496 17.0716C9.75226 16.1123 9.64829 15.0567 9.85086 14.0383C10.0534 13.0199 10.5534 12.0844 11.2877 11.3502C12.0219 10.616 12.9574 10.1159 13.9758 9.91338C14.9942 9.7108 16.0498 9.81477 17.0091 10.2121C17.9684 10.6095 18.7883 11.2824 19.3652 12.1458C19.9421 13.0091 20.25 14.0241 20.25 15.0625C20.2482 16.4544 19.6946 17.7887 18.7104 18.7729C17.7262 19.7571 16.3918 20.3108 15 20.3125Z" fill="url(#paint0_linear_0_469)"/>
<defs>
<linearGradient id="paint0_linear_0_469" x1="29.4375" y1="19.0056" x2="0.562469" y2="19.0056" gradientUnits="userSpaceOnUse">
<stop stop-color="#B0772A"/>
<stop offset="0.16" stop-color="#DEB864"/>
<stop offset="0.25" stop-color="#F4D780"/>
<stop offset="0.46" stop-color="#F4D780"/>
<stop offset="0.65" stop-color="#FBF9D8"/>
<stop offset="0.75" stop-color="#F4D780"/>
<stop offset="1" stop-color="#B0772A"/>
</linearGradient>
</defs>
</svg>
