<svg width="39" height="38" viewBox="0 0 39 38" fill="none" xmlns="http://www.w3.org/2000/svg">
<path d="M5.58035 33.1884C10.2367 33.1884 16.4452 31.6363 16.4452 20.7715V8.35465C16.4452 6.41451 15.2718 5.22404 13.3409 5.25043H7.13247C5.19232 5.25043 4.02823 6.41451 4.02823 8.31119V17.6673C4.02823 19.6075 5.19232 20.7715 7.13247 20.7715C8.68459 20.7715 8.68459 20.7715 8.68459 22.3237V23.8758C8.68459 25.4279 7.13247 26.98 5.58035 26.98C4.02823 26.98 4.02823 26.9924 4.02823 28.5802V31.6363C4.02823 33.1884 4.02823 33.1884 5.58035 33.1884Z" stroke="white" stroke-width="3.11111" stroke-linecap="round" stroke-linejoin="round"/>
<path d="M24.2058 33.1884C28.8622 33.1884 35.0706 31.6363 35.0706 20.7715V8.35465C35.0706 6.41451 33.8957 5.22404 31.9664 5.25043H25.7579C23.8178 5.25043 22.6537 6.41451 22.6537 8.31119V17.6673C22.6537 19.6075 23.8178 20.7715 25.7579 20.7715H26.922C26.922 24.2638 27.31 26.98 22.6537 26.98V31.6363C22.6537 33.1884 22.6537 33.1884 24.2058 33.1884Z" stroke="white" stroke-width="3.11111" stroke-linecap="round" stroke-linejoin="round"/>
</svg>
