<svg width="10" height="13" viewBox="0 0 10 13" fill="none" xmlns="http://www.w3.org/2000/svg">
<path d="M1.649 13V0.861999H4.845C6.32967 0.861999 7.429 1.16233 8.143 1.763C8.86833 2.36367 9.231 3.23633 9.231 4.381C9.231 5.15167 9.05533 5.81467 8.704 6.37C8.35267 6.914 7.83133 7.33333 7.14 7.628C6.46 7.92267 5.61567 8.07 4.607 8.07H3.179V13H1.649ZM0.17 10.688V9.583H5.984V10.688H0.17ZM0.17 8.07V6.778H4.063V8.07H0.17ZM4.386 6.778C5.07733 6.778 5.661 6.70433 6.137 6.557C6.62433 6.40967 6.99833 6.166 7.259 5.826C7.51967 5.486 7.65 5.02133 7.65 4.432C7.65 3.66133 7.412 3.089 6.936 2.715C6.46 2.341 5.71767 2.154 4.709 2.154H3.179V6.778H4.386Z" fill="white"/>
</svg>
