<svg width="30" height="30" viewBox="0 0 30 30" fill="none" xmlns="http://www.w3.org/2000/svg">
<g clip-path="url(#clip0_0_437)">
<path d="M15 30C23.2843 30 30 23.2843 30 15C30 6.71573 23.2843 0 15 0C6.71573 0 0 6.71573 0 15C0 23.2843 6.71573 30 15 30Z" fill="url(#paint0_linear_0_437)"/>
<path fill-rule="evenodd" clip-rule="evenodd" d="M14.4334 21.579H15.6107C15.6107 21.579 15.9663 21.5399 16.1479 21.3442C16.315 21.1645 16.3096 20.8271 16.3096 20.8271C16.3096 20.8271 16.2867 19.2473 17.0198 19.0147C17.7426 18.7855 18.6707 20.5415 19.6544 21.2167C20.3983 21.7276 20.9636 21.6156 20.9636 21.6156L23.5939 21.579C23.5939 21.579 24.9699 21.4942 24.3174 20.4123C24.2639 20.3238 23.9375 19.612 22.3617 18.1494C20.7125 16.6186 20.9333 16.8662 22.92 14.2183C24.13 12.6056 24.6137 11.6211 24.4626 11.1994C24.3185 10.7978 23.4286 10.904 23.4286 10.904L20.467 10.9224C20.467 10.9224 20.2475 10.8925 20.0846 10.9898C19.9256 11.0853 19.8231 11.3077 19.8231 11.3077C19.8231 11.3077 19.3544 12.5556 18.7293 13.6169C17.4105 15.8563 16.8832 15.9745 16.6677 15.8354C16.1663 15.5114 16.2915 14.5335 16.2915 13.8388C16.2915 11.6687 16.6206 10.7639 15.6505 10.5296C15.3286 10.4518 15.0917 10.4005 14.2684 10.3922C13.2117 10.3812 12.3173 10.3954 11.8108 10.6435C11.4739 10.8085 11.214 11.1762 11.3723 11.1973C11.568 11.2235 12.0114 11.3168 12.2464 11.6369C12.5499 12.0497 12.5392 12.9771 12.5392 12.9771C12.5392 12.9771 12.7135 15.5317 12.132 15.8491C11.7327 16.0667 11.1851 15.6223 10.0094 13.5907C9.407 12.55 8.95217 11.3997 8.95217 11.3997C8.95217 11.3997 8.86446 11.1847 8.70804 11.0698C8.5182 10.9305 8.25294 10.8861 8.25294 10.8861L5.43867 10.9045C5.43867 10.9045 5.0162 10.9163 4.86111 11.1C4.72314 11.2634 4.85015 11.6013 4.85015 11.6013C4.85015 11.6013 7.05344 16.7561 9.54818 19.3538C11.8357 21.7354 14.4334 21.579 14.4334 21.579Z" fill="#080808"/>
</g>
<defs>
<linearGradient id="paint0_linear_0_437" x1="30" y1="15.0046" x2="0" y2="15.0046" gradientUnits="userSpaceOnUse">
<stop stop-color="#B0772A"/>
<stop offset="0.16" stop-color="#DEB864"/>
<stop offset="0.25" stop-color="#F4D780"/>
<stop offset="0.46" stop-color="#F4D780"/>
<stop offset="0.65" stop-color="#FBF9D8"/>
<stop offset="0.75" stop-color="#F4D780"/>
<stop offset="1" stop-color="#B0772A"/>
</linearGradient>
<clipPath id="clip0_0_437">
<rect width="30" height="30" fill="white"/>
</clipPath>
</defs>
</svg>
